<?xml version="1.0" encoding="UTF-8"?><svg id="_レイヤー_2" xmlns="http://www.w3.org/2000/svg" viewBox="0 0 116 116"><g id="_枠"><rect width="116" height="116" style="fill:none;"/></g><g id="_レイヤー_3"><path d="m93.27,58.46c0,4.74-5.73,8.94-14.5,11.47-5.52,1.59-12.24,2.53-19.5,2.53-2.02,0-8.69-.45-10.03-.62-3.83-.49-7.36-1.24-10.47-2.21-.9-.28-1.76-.58-2.58-.9-1.22-.46-2.36-.96-3.41-1.49-4.7-2.41-7.51-5.46-7.51-8.78s2.56-6.09,6.87-8.44c.82-.45,1.71-.87,2.65-1.27,1.11-.48,2.3-.92,3.56-1.32,1.1-.36,2.25-.68,3.45-.98,5.1-1.26,11.08-1.99,17.47-1.99,18.78,0,34,6.27,34,14Z" style="fill:#f5fcff; stroke:#000; stroke-miterlimit:10;"/><path d="m36.34,84.01c-1.06-.82-2.06-1.72-3-2.72-5.02-5.34-8.07-13.12-8.07-23.83,0,3.32,2.81,6.37,7.51,8.78,1.05.53,2.19,1.03,3.41,1.49l-.49.44.64,15.84Z" style="fill:#bfe9ff; stroke:#000; stroke-miterlimit:10;"/><path d="m69.76,89.95v3c0,1.1-4.48,2-10,2s-10-.9-10-2v-2.98c3.18.67,6.54.98,10,.98s6.85-.32,10-1Z" style="fill:#f5fcff; stroke:#000; stroke-miterlimit:10;"/><g id="_文字"><polygon points="17.71 19.05 62.98 58.44 61.05 60.75 14.26 23.17 17.71 19.05" style="fill:#e39600;"/><path d="m68.08,50.29c1.9.4,3.49,2.6,1.62,7.56-1.1,2.93-2.67,5.12-4.27,6.74-2.35,2.39-5.18,3.71-8.65,4.23-1.9.29-3.24.28-4.12.3l12.16-32.27c1.41-.58,3.34-1.15,5.21-1.44,2.84-.43,4.41.07,5.15,1.5.58,1.17.5,2.97-.42,5.43-1.22,3.23-3.81,6.27-6.62,7.83l-.05.13Zm-3.19-.66c3.05-.46,5.95-3.25,7.21-6.62l.02-.04c1.46-3.88.1-5.26-3.03-4.79-1.33.2-2.16.45-2.68.69l-4.2,11.16,2.68-.4Zm-8.71,16.39c.51.09,1.31,0,2.36-.15,3.17-.48,6.67-2.67,8.53-7.63,1.85-4.91-.45-6.27-3.5-5.81l-2.41.36-4.98,13.23Z" style="fill:#ff4f12; stroke:#ff4f12; stroke-linecap:round; stroke-linejoin:round; stroke-width:3px;"/><polygon points="35.08 55.69 32.35 54.65 3.32 43.51 5.35 38.53 32.18 50.07 34.91 51.24 35.05 54.95 35.08 55.69" style="fill:#e39600;"/><path d="m81.98,66.09c-.91.43-2.46.86-4.13.86-3.76,0-5-3.21-1.35-9.74,3.48-6.22,8.58-10.09,12.86-10.09,1.75,0,2.5.48,2.79.79l-1.41,1.77c-.43-.43-1.17-.79-2.33-.79-3.32,0-7.23,2.93-10.2,8.25s-2.42,8.04.99,8.04c1.11,0,2.39-.33,3.38-.78l-.6,1.69Z" style="fill:#ffb133; stroke:#ffb100; stroke-linecap:round; stroke-linejoin:round; stroke-width:2px;"/><path d="m48.86,60.98l-3.24-1.24-3.4-1.3-.85-.33-6.01,5.34-.28-7.76-.03-.74-.14-3.71-.12-3.49-.04-.99v-.15c-.2-3.48-.39-6.96-.69-10.19l.09-.09c.96,2.58,2.05,5.25,3.29,8.1l.91,2,1.06,2.32,1.45,5.05h.03s2.53,1.1,2.53,1.1l3.32,1.43-2.49-5.49-2.45-5.39-7.09-15.55-3.18,2.83.48,12.85.13,3.44.04,1.05.14,3.82.03.76.43,11.59.56,15.05.28,7.51,2.81-2.5-.09-2.29-.64-15.84.49-.44,8.29-7.36,4.76,10.47c1.34.17,2.71.3,4.12.41l-4.5-10.27Z" style="fill:#000ce3; stroke:#000ce3; stroke-linecap:round; stroke-linejoin:round; stroke-width:2px;"/><polygon points="60.48 62.24 59.35 65.01 48.86 60.98 45.62 59.74 42.22 58.44 41.37 58.11 38.61 57.05 37.18 56.5 35.08 55.69 35.05 54.95 34.91 51.24 37.02 52.15 38.45 52.77 40.86 53.8 40.89 53.81 43.42 54.9 46.74 56.33 60.48 62.24" style="fill:#e39600;"/></g><path d="m36.19,67.73c.82.32,1.68.62,2.58.9,3.11.97,6.64,1.72,10.47,2.21,1.34.17,2.71.3,4.12.41,1.92.14,3.89.21,5.91.21,7.26,0,13.98-.94,19.5-2.53,8.77-2.53,14.5-6.73,14.5-11.47,0,15.1-5.68,24.37-14.5,29.22-2.73,1.5-5.75,2.58-9,3.28-3.15.68-6.5,1-10,1s-6.82-.31-10-.98c-4.01-.83-7.73-2.23-11-4.27-.84-.52-1.65-1.08-2.43-1.7" style="fill:#bfe9ff; stroke:#000; stroke-miterlimit:10;"/></g></svg>